<?xml version="1.0" standalone="no"?>
<!DOCTYPE svg PUBLIC "-//W3C//DTD SVG 20010904//EN"
 "http://www.w3.org/TR/2001/REC-SVG-20010904/DTD/svg10.dtd">
<svg version="1.0" xmlns="http://www.w3.org/2000/svg"
 width="122.000000pt" height="118.000000pt" viewBox="0 0 122.000000 118.000000"
 preserveAspectRatio="xMidYMid meet">

<g transform="translate(0.000000,118.000000) scale(0.100000,-0.100000)"
fill="#000000" stroke="none">
<path d="M530 1111 c-74 -24 -113 -44 -192 -103 -80 -59 -174 -157 -212 -222
-104 -178 -110 -435 -12 -559 16 -21 164 -79 246 -96 30 -7 86 -29 125 -50
176 -95 226 -95 365 -1 160 107 221 184 273 341 70 209 -22 466 -226 630 -95
77 -242 101 -367 60z m199 -232 c36 -5 87 -20 115 -31 64 -27 141 -100 162
-153 14 -37 14 -43 0 -70 l-16 -30 6 46 c4 26 2 54 -3 63 -8 15 -19 10 -81
-39 -40 -31 -72 -60 -72 -66 0 -14 62 -49 87 -49 12 0 29 8 39 17 10 10 22 18
28 18 6 0 12 10 14 23 5 32 22 27 22 -7 0 -69 -10 -88 -49 -94 -20 -3 -56 -2
-81 4 -100 21 -116 21 -184 0 -104 -32 -186 -25 -353 30 -58 19 -63 23 -63 50
0 37 59 156 101 204 40 45 74 63 153 80 77 17 96 17 175 4z m36 -695 c-19 -25
-35 -50 -35 -55 0 -19 -27 -7 -71 34 l-45 42 50 3 c28 1 65 6 81 11 53 16 56
12 20 -35z"/>
<path d="M480 690 c0 -129 137 -202 231 -123 16 14 29 28 29 33 0 7 -238 130
-253 130 -4 0 -7 -18 -7 -40z"/>
<path d="M460 624 c0 -6 7 -19 16 -30 14 -18 14 -18 3 6 -14 31 -19 36 -19 24z"/>
</g>
</svg>
